# xmcd
#
# Track frame offsets: 
#        150
#        14260
#        29094
#        83713
#        95170
#        112658
#        131858
#        146457
#
# Disc length: 2177 seconds
#
# Revision: 2
# Processed by: cddbd v1.5.2PL0 Copyright (c) Steve Scherf et al.
# Submitted via: ExactAudioCopy v1.3
#
DISCID=66087f08
DTITLE=The Temptations - All Directions
DYEAR=1972
DGENRE=Motown
TTITLE0=Funky Music Sho Nuff Turns Me On
TTITLE1=Run Charlie Run
TTITLE2=Papa Was A Rollin' Stone
TTITLE3=Love Woke Me Up This Morning
TTITLE4=I Ain't Got Nothin'
TTITLE5=The First Time Ever (I Saw Your Face)
TTITLE6=Mother Nature
TTITLE7=Do Your Thing
EXTD=YEAR: 1972
EXTT0=
EXTT1=
EXTT2=
EXTT3=
EXTT4=
EXTT5=
EXTT6=
EXTT7=
PLAYORDER=
